<svg xmlns="http://www.w3.org/2000/svg" viewBox="0 0 248.8 118.94"><path d="M231.12,69.3a2.38,2.38,0,1,0-2.36-2.38,2.37,2.37,0,0,0,2.36,2.38" transform="translate(-5.31 -6.83)" style="fill:#c00"/><path d="M224.36,69.51a2.44,2.44,0,1,0-2.43-2.44,2.43,2.43,0,0,0,2.43,2.44" transform="translate(-5.31 -6.83)" style="fill:#c00"/><path d="M237.84,72.88a2.44,2.44,0,1,0-2.43-2.44,2.43,2.43,0,0,0,2.43,2.44" transform="translate(-5.31 -6.83)" style="fill:#c00"/><path d="M231.11,62.63a2.71,2.71,0,1,0-2.69-2.7,2.7,2.7,0,0,0,2.69,2.7" transform="translate(-5.31 -6.83)" style="fill:#c00"/><path d="M237.77,66.17a2.71,2.71,0,1,0-2.69-2.7,2.69,2.69,0,0,0,2.69,2.7" transform="translate(-5.31 -6.83)" style="fill:#c00"/><path d="M244.43,69.71a2.71,2.71,0,1,0-2.69-2.7,2.7,2.7,0,0,0,2.69,2.7" transform="translate(-5.31 -6.83)" style="fill:#c00"/><path d="M237.83,79.43a1.76,1.76,0,1,0-1.74-1.75,1.75,1.75,0,0,0,1.74,1.75" transform="translate(-5.31 -6.83)" style="fill:#c00"/><path d="M231.1,82.39a1.17,1.17,0,1,0-1.16-1.17,1.16,1.16,0,0,0,1.16,1.17" transform="translate(-5.31 -6.83)" style="fill:#c00"/><path d="M251.42,73.08a2.71,2.71,0,1,0-2.69-2.7,2.7,2.7,0,0,0,2.69,2.7" transform="translate(-5.31 -6.83)" style="fill:#c00"/><path d="M231.24,76a1.9,1.9,0,1,0-1.89-1.9,1.9,1.9,0,0,0,1.89,1.9" transform="translate(-5.31 -6.83)" style="fill:#c00"/><path d="M244.46,76a2,2,0,1,0-2-2,2,2,0,0,0,2,2" transform="translate(-5.31 -6.83)" style="fill:#c00"/><path d="M197.23,69.38A2.44,2.44,0,1,0,194.8,67a2.43,2.43,0,0,0,2.43,2.43" transform="translate(-5.31 -6.83)" style="fill:#c00"/><path d="M197.63,75.36a1.41,1.41,0,1,0-1.39-1.4,1.4,1.4,0,0,0,1.39,1.4" transform="translate(-5.31 -6.83)" style="fill:#c00"/><path d="M224.31,75.72a1.54,1.54,0,1,0-1.53-1.54,1.54,1.54,0,0,0,1.53,1.54" transform="translate(-5.31 -6.83)" style="fill:#c00"/><path d="M127,34.32a3,3,0,1,0-3-3,3,3,0,0,0,3,3" transform="translate(-5.31 -6.83)" style="fill:#c00"/><path d="M126.68,125.78a3,3,0,1,0-3-3,3,3,0,0,0,3,3" transform="translate(-5.31 -6.83)" style="fill:#c00"/><path d="M8.27,77.1a3,3,0,1,0-3-3,3,3,0,0,0,3,3" transform="translate(-5.31 -6.83)" style="fill:#c00"/><path d="M150.74,45.78c-5.18-4.64-13-6.66-20.86-6.66-14.11,0-25,8.54-25,20,0,9,5.61,14.47,13.81,20.12C125.56,84.14,133,87.91,133,94.71c0,6.08-4.89,9-10.36,9-5.18,0-11.37-3.48-15.68-7l-6,10c6.77,4.77,14.1,8.25,24,8.25,15.83,0,26.91-10.72,26.91-20.85,0-6.66-3-14.19-13.24-21.86-8.05-5.93-15-9.26-15-15.06,0-4.92,4.32-7.38,8.63-7.38,3.46,0,7.92,1.45,12.24,4.63ZM71.88,113.24H91V6.83H71.88V49.25h-.29c-4.31-6.37-12.66-10.13-22-10.13-19.29,0-32.81,18.24-32.81,37.06,0,23.16,12.52,38.8,31.37,38.8,11.22,0,18.71-6.08,23.45-12.16h.29ZM54.47,50.7C66,50.7,71.88,62.43,71.88,75c0,14.48-5.46,28.38-18.27,28.38-11.08,0-16.55-13.61-16.55-27.65s5-25,17.41-25" transform="translate(-5.31 -6.83)" style="fill:#c00"/><path d="M223.29,113.31c-2.3-5.07-3-11.87-3-17.66V66.12c0-22.59-16.26-26.54-29.5-26.76a39.55,39.55,0,0,0-27.06,9.43L170,57.72a27.74,27.74,0,0,1,18.53-6.9,12.82,12.82,0,0,1,12.94,10.81h0l.06,9.93c1.34,21.11-8.53,30.59-16.13,30.59-4.6,0-8.61-4.11-8.61-10.48,0-5.12,2.53-10.7,7.24-13.56L177.7,69c-10.95,4-19.89,11.52-19.89,24,0,13.32,9.36,22,20.58,22,6.62,0,13.1-4.49,18.42-8.69l4.32-3.62c0,3.91.43,8.11,1.87,10.57Z" transform="translate(-5.31 -6.83)" style="fill:#c00"/><path d="M190.74,69.75a2.44,2.44,0,1,0-3-1.67,2.43,2.43,0,0,0,3,1.67" transform="translate(-5.31 -6.83)" style="fill:#c00"/><path d="M192.29,75.64a1.4,1.4,0,1,0-1.73-1,1.39,1.39,0,0,0,1.73,1" transform="translate(-5.31 -6.83)" style="fill:#c00"/><path d="M184.28,71.41a2.43,2.43,0,1,0-3.34-.78,2.43,2.43,0,0,0,3.34.78" transform="translate(-5.31 -6.83)" style="fill:#c00"/><path d="M187.26,77a1.4,1.4,0,1,0-1.93-.45,1.4,1.4,0,0,0,1.93.45" transform="translate(-5.31 -6.83)" style="fill:#c00"/></svg>